<svg data-name="Layer 1" xmlns="http://www.w3.org/2000/svg" width="20.923" height="17"><path data-name="" d="M0 8.745q0 .368.02.695l.041.654a4.732 4.732 0 0 0 .082.633q.057.307.143.593a3.608 3.608 0 0 0 .123.552q.081.265.184.528t.2.49a4.256 4.256 0 0 0 .225.429 2.03 2.03 0 0 0 .225.409q.143.2.286.388t.306.368a2.987 2.987 0 0 0 .368.347 2.742 2.742 0 0 0 .368.306q.2.143.388.266t.388.245a2.859 2.859 0 0 0 .409.2q.244.13.474.233a4.812 4.812 0 0 0 .47.184q.245.082.49.143t.531.142q.245.041.531.1t.572.1q.286.041.552.082a3.625 3.625 0 0 0 .552.041q.286.041.593.061l.612.046q.307.02.634.02h1.349q.327 0 .633-.02l.613-.041q.306-.02.593-.061a3.625 3.625 0 0 0 .552-.041q.266-.041.552-.082t.572-.1q.286-.061.531-.1.286-.082.552-.143t.511-.143a4.812 4.812 0 0 0 .47-.184 4.257 4.257 0 0 0 .429-.225 2.859 2.859 0 0 0 .409-.2l.409-.245a3.9 3.9 0 0 0 .388-.266q.184-.143.388-.306.163-.163.327-.347l.327-.368a2.588 2.588 0 0 0 .286-.388l.245-.409a4.256 4.256 0 0 0 .225-.429q.1-.225.2-.49t.184-.531a3.608 3.608 0 0 0 .123-.552q.082-.286.143-.593a4.732 4.732 0 0 0 .082-.633l.04-.663q.02-.327.02-.695a7.082 7.082 0 0 0-.1-1.206 5.5 5.5 0 0 0-.326-1.139 7.733 7.733 0 0 0-.531-1.062 4.987 4.987 0 0 0-.756-.96 1.121 1.121 0 0 0 .061-.143l.041-.123q.02-.061.041-.143a.8.8 0 0 1 .061-.169.672.672 0 0 1 .02-.163q.02-.082.041-.2l.041-.245a1.76 1.76 0 0 0 .02-.286 2.344 2.344 0 0 1 .02-.286 1.313 1.313 0 0 0 0-.327 2.8 2.8 0 0 1-.02-.347 1.428 1.428 0 0 0-.041-.347q-.041-.2-.082-.388t-.1-.388q-.061-.2-.123-.388t-.143-.388L18.88 0h-.348a.649.649 0 0 0-.184.041.947.947 0 0 0-.184.02l-.2.041q-.1.02-.225.041A1.614 1.614 0 0 0 17.49.2q-.123.041-.266.082a1.794 1.794 0 0 0-.306.123q-.163.082-.347.163t-.347.163a2.859 2.859 0 0 0-.409.2l-.409.245q-.206.132-.406.275a3.554 3.554 0 0 1-.45.266q-.368-.082-.817-.163t-.963-.144q-.511-.061-1.083-.082t-1.226-.02q-.654 0-1.226.02t-1.082.082q-.511.061-.96.143t-.817.163a3.554 3.554 0 0 1-.45-.266q-.2-.143-.409-.266L5.108.94A2.859 2.859 0 0 0 4.7.736Q4.5.654 4.311.572a3.648 3.648 0 0 1-.327-.163A1.293 1.293 0 0 0 3.7.286Q3.555.245 3.433.2a1.889 1.889 0 0 0-.225-.057Q3.106.123 2.983.1T2.758.061a.947.947 0 0 0-.183-.02A.672.672 0 0 0 2.37 0h-.388a.059.059 0 0 0-.041.02.059.059 0 0 1-.041.021h-.02q-.08.204-.143.388t-.123.388q-.061.2-.1.388t-.084.389a1.428 1.428 0 0 0-.041.347 2.8 2.8 0 0 1-.02.347 1.313 1.313 0 0 0 0 .327 2.343 2.343 0 0 1 .02.286 1.76 1.76 0 0 0 .02.286l.042.246q.02.123.041.2a.672.672 0 0 1 .02.163.8.8 0 0 1 .061.163q.02.082.041.143l.041.128a1.121 1.121 0 0 0 .061.143 4.987 4.987 0 0 0-.756.96A7.733 7.733 0 0 0 .429 6.4 5.5 5.5 0 0 0 .1 7.54 7.082 7.082 0 0 0 0 8.745zm2.575 2.575a3.112 3.112 0 0 1 .081-.72 3.529 3.529 0 0 1 .244-.69 3.871 3.871 0 0 1 .41-.674 3.262 3.262 0 0 1 .613-.613 2.229 2.229 0 0 1 .184-.163q.1-.082.225-.163a2.284 2.284 0 0 1 .245-.143 1.872 1.872 0 0 1 .245-.1q.163-.041.306-.082a2.144 2.144 0 0 1 .286-.061l.306-.041a2.633 2.633 0 0 1 .327-.02h1.268a1.343 1.343 0 0 0 .327.041q.163 0 .368.02t.409.02a2.079 2.079 0 0 1 .409.041q.245 0 .45.02t.407.018h1.43q.2 0 .409-.02t.409-.02a2.751 2.751 0 0 1 .45-.041 3.519 3.519 0 0 0 .388-.02 3.328 3.328 0 0 1 .368-.02.982.982 0 0 0 .306-.041h1.308a2.633 2.633 0 0 1 .327.02l.306.041a2.144 2.144 0 0 1 .286.061q.143.041.266.082a1.4 1.4 0 0 1 .286.1 1.261 1.261 0 0 1 .225.143q.1.082.225.163a1.339 1.339 0 0 1 .2.163 5.023 5.023 0 0 1 .593.613 3.3 3.3 0 0 1 .429.674 3.529 3.529 0 0 1 .245.695 3.112 3.112 0 0 1 .082.715q0 .2-.02.429t-.041.409a3.452 3.452 0 0 1-.061.368q-.041.184-.082.347a3.4 3.4 0 0 0-.143.327q-.061.163-.123.306a1.647 1.647 0 0 1-.143.266l-.163.245a1.47 1.47 0 0 1-.184.225q-.1.1-.225.2a1.839 1.839 0 0 1-.266.184q-.143.082-.306.163a2.672 2.672 0 0 1-.286.163q-.163.082-.306.143a2.4 2.4 0 0 1-.286.1q-.143.041-.306.082a.654.654 0 0 1-.286.1q-.163.02-.347.061a3.306 3.306 0 0 1-.388.061q-.2.02-.45.061a4.065 4.065 0 0 1-.429.061q-.225.02-.429.02a3.519 3.519 0 0 0-.388.02 3.153 3.153 0 0 1-.347.02H8.582a3.153 3.153 0 0 1-.347-.02 3.519 3.519 0 0 0-.388-.02q-.2 0-.429-.02a4.065 4.065 0 0 1-.429-.061q-.245-.041-.45-.061a3.306 3.306 0 0 1-.388-.061q-.185-.03-.351-.05a1.009 1.009 0 0 1-.327-.1q-.12-.043-.263-.086t-.31-.1a2.109 2.109 0 0 1-.3-.143q-.143-.082-.306-.163-.123-.082-.266-.163a1.839 1.839 0 0 1-.266-.184q-.123-.1-.225-.2a1.47 1.47 0 0 1-.184-.225l-.163-.245a1.647 1.647 0 0 1-.143-.266q-.064-.148-.125-.311a3.4 3.4 0 0 0-.143-.327q-.041-.164-.079-.348a3.452 3.452 0 0 1-.061-.368q-.02-.184-.041-.409t-.02-.429zm10.5-.2a2.67 2.67 0 0 0 .1.756 2.118 2.118 0 0 0 .286.613 1.765 1.765 0 0 0 .409.429.88.88 0 0 0 1.022 0 1.765 1.765 0 0 0 .409-.429 2.118 2.118 0 0 0 .286-.613 2.848 2.848 0 0 0 0-1.512 2.118 2.118 0 0 0-.287-.618 1.765 1.765 0 0 0-.4-.429.88.88 0 0 0-1.022 0 1.765 1.765 0 0 0-.409.429 2.118 2.118 0 0 0-.286.613 2.67 2.67 0 0 0-.1.756zm-7.846 0a2.67 2.67 0 0 0 .1.756 2.118 2.118 0 0 0 .286.613 1.765 1.765 0 0 0 .409.429.88.88 0 0 0 1.022 0 1.765 1.765 0 0 0 .409-.429 2.118 2.118 0 0 0 .286-.613 2.848 2.848 0 0 0 0-1.512 2.118 2.118 0 0 0-.286-.613 1.765 1.765 0 0 0-.409-.429.88.88 0 0 0-1.022 0 1.765 1.765 0 0 0-.409.429 2.118 2.118 0 0 0-.286.613 2.67 2.67 0 0 0-.1.756z"/></svg>