<svg xmlns="http://www.w3.org/2000/svg" viewBox="0 0 512 512"><circle cx="256" cy="256" r="256" fill="#ffd55c"/><path fill="#fff" d="M256 425.317l-73.315-42.331v-84.655L256 340.662z"/><path fill="#f2f2f2" d="M256 256l-73.315 42.331L256 340.662l73.315-42.331z"/><path fill="#d9d8d7" d="M256 425.317l73.309-42.331v-84.655L256 340.662z"/><path fill="#ff6d3b" d="M329.309 298.328L256 256v-84.652l73.309 42.328z"/><path fill="#242d3c" d="M329.309 129.014L256 171.348l73.309 42.328 73.318-42.328z"/><path fill="#16c6cc" d="M329.309 298.328L402.627 256v-84.652l-73.318 42.328z"/><g fill="#242d3c"><path d="M182.685 299.318c-.172 0-.344-.046-.495-.132l-73.315-42.328a.986.986 0 0 1-.492-.859v-84.652c0-.353.188-.684.492-.859s.68-.175.988 0l73.315 42.328a.981.981 0 0 1 .492.856v84.655c0 .353-.188.68-.492.859a.98.98 0 0 1-.493.132zm-72.331-43.886l71.343 41.188v-82.376l-71.343-41.185v82.373z"/><path d="M182.688 214.66a.986.986 0 0 1-.492-.132L108.874 172.2a.98.98 0 0 1-.492-.852c0-.353.188-.684.492-.859l73.318-42.328a.98.98 0 0 1 .988 0l73.315 42.328a.993.993 0 0 1 0 1.711l-73.315 42.328a.974.974 0 0 1-.492.132zm-71.346-43.312l71.346 41.188 71.34-41.188-71.34-41.195-71.346 41.195zM256 256.991a.985.985 0 0 1-.495-.132l-5.13-2.96a.986.986 0 0 1-.36-1.351.988.988 0 0 1 1.348-.363l5.13 2.966a.976.976 0 0 1 .36 1.348.99.99 0 0 1-.853.492zm-14.141-8.166c-.168 0-.337-.043-.492-.129l-9.008-5.206a.978.978 0 0 1-.357-1.348.986.986 0 0 1 1.344-.36l9.011 5.199a.986.986 0 0 1 .357 1.348.989.989 0 0 1-.855.496zm-18.013-10.398a1 1 0 0 1-.495-.135l-9.008-5.199a.988.988 0 0 1-.36-1.348.99.99 0 0 1 1.348-.36l9.008 5.199a.983.983 0 0 1 .36 1.348.995.995 0 0 1-.853.495zm-18.015-10.402a.98.98 0 0 1-.492-.135l-9.008-5.199a.979.979 0 0 1-.36-1.348.987.987 0 0 1 1.348-.36l9.008 5.199a.985.985 0 0 1 .36 1.348.993.993 0 0 1-.856.495z"/><path d="M187.812 217.623a.985.985 0 0 1-.492-.132l-4.634-2.679-4.641 2.679a.987.987 0 0 1-.988-1.708l5.13-2.963a.986.986 0 0 1 .991 0l5.133 2.963a.988.988 0 0 1 .36 1.348.993.993 0 0 1-.859.492zm-64.308 31.202a.984.984 0 0 1-.852-.495.986.986 0 0 1 .36-1.348l9.008-5.199a.987.987 0 0 1 .988 1.708L124 248.697a1.047 1.047 0 0 1-.496.128zm18.016-10.398a.988.988 0 0 1-.496-1.843l9.008-5.199a.987.987 0 0 1 1.348.36.983.983 0 0 1-.357 1.348l-9.011 5.199a.948.948 0 0 1-.492.135zm18.016-10.402a.989.989 0 0 1-.852-.495.984.984 0 0 1 .357-1.348l9.011-5.199c.466-.277 1.07-.112 1.344.36s.112 1.077-.357 1.348l-9.011 5.199a.958.958 0 0 1-.492.135zm-50.169 28.966a.987.987 0 0 1-.496-1.84l5.133-2.966a.989.989 0 0 1 .988 1.714l-5.133 2.96a.988.988 0 0 1-.492.132z"/><path d="M182.685 299.318c-.172 0-.344-.046-.495-.132a.99.99 0 0 1-.489-.859v-84.652c0-.35.188-.68.489-.856l73.315-42.331a.995.995 0 0 1 .988 0 .977.977 0 0 1 .495.859V256c0 .353-.188.68-.495.859l-73.315 42.328a.99.99 0 0 1-.493.131zm.988-85.074v82.376l71.336-41.188v-82.373l-71.336 41.185zm-.985-78.316a.989.989 0 0 1-.988-.988v-5.929c0-.542.443-.988.988-.988s.988.446.988.988v5.929a.989.989 0 0 1-.988.988zm-.003 62.408a.989.989 0 0 1-.988-.988v-10.402a.987.987 0 1 1 1.976 0v10.402a.993.993 0 0 1-.988.988zm0-20.804a.99.99 0 0 1-.988-.988v-10.399a.988.988 0 1 1 1.976 0v10.399c0 .545-.44.988-.988.988zm.003-20.804a.986.986 0 0 1-.988-.988v-10.399a.987.987 0 1 1 1.976 0v10.399a.988.988 0 0 1-.988.988z"/><path d="M182.685 214.66a.987.987 0 0 1-.988-.988v-5.926a.988.988 0 0 1 1.976 0v5.926a.988.988 0 0 1-.988.988z"/></g></svg>