<svg xmlns="http://www.w3.org/2000/svg" viewBox="0 0 512 512"><circle cx="256" cy="256" r="256" fill="#ffd55c"/><path fill="#ff6d3b" d="M133.417 114.678h160.041v215.007H133.417z"/><path d="M133.417 97.445h160.041v17.233H133.417zm20.384 36.524h83.34v3.373h-83.34zm26.423 6.329h47.715v3.369h-47.715zm-7.036 6.332h99.857v3.369h-99.857zm0 6.309h17.52v3.369h-17.52zm-19.387 15.625h39.837v3.373h-39.837zm19.387 6.339h93.957v3.369h-93.957zm0 6.328h77.986v3.363h-77.986zm-19.387 15.641h63.224v3.363h-63.224zm19.387 6.309h67.908v3.373h-67.908zm0 6.343h20.467v3.369h-20.467zm12.321 6.309h77.705v3.369h-77.705zm-12.321 6.342h28.084v3.369h-28.084zm-19.387 15.637h43.791v3.369h-43.791zm19.552 6.316h54.576v3.369h-54.576zm0 6.323h33.567v3.356h-33.567zm-19.552 15.657h97.376v3.363h-97.376zm19.387 6.309h24.404v3.369h-24.404zm0 6.342h47.755v3.369h-47.755zm23.156 6.309h72.519v3.363h-72.519zm-42.543 15.625h57.707v3.363h-57.707zm19.387 6.342h69.368v3.356h-69.368z" fill="#fff"/><path d="M218.565 142.683c0-4.786 3.904-8.717 8.701-8.717h142.637c4.783 0 8.697 3.928 8.697 8.717v214.832c0 4.786-3.914 8.691-8.697 8.691H227.265c-4.796 0-8.701-3.904-8.701-8.691V142.683z" fill="#242d3c"/><path d="M289.752 356.504a3.873 3.873 0 0 1-3.868-3.871v-.961a3.875 3.875 0 0 1 3.868-3.871h17.659a3.876 3.876 0 0 1 3.871 3.871v.961a3.879 3.879 0 0 1-3.871 3.871h-17.659zm8.813-207.201c-2.203 0-3.964-1.774-3.964-3.994 0-2.18 1.761-3.987 3.964-3.987 2.197 0 3.99 1.807 3.99 3.987a3.987 3.987 0 0 1-3.99 3.994z" fill="#3e4959"/><path d="M298.579 146.98a1.65 1.65 0 0 1-1.652-1.665c0-.922.73-1.665 1.652-1.665a1.67 1.67 0 0 1 1.671 1.665 1.67 1.67 0 0 1-1.671 1.665z" fill="#d9d8d7"/><path fill="#fff" d="M227.629 156.672h141.877v181.44H227.629z"/><path fill="#ff6d3b" d="M233.241 187.547h28.335v28.328h-28.335z"/><path fill="#21d8de" d="M267.224 187.547h28.335v28.328h-28.335z"/><path fill="#ffd55c" d="M301.221 187.547h28.338v28.328h-28.338z"/><path fill="#3e4959" d="M335.211 187.547h28.335v28.328h-28.335z"/><path fill="#ffd55c" d="M233.241 221.547h28.335v28.335h-28.335z"/><path fill="#3e4959" d="M267.224 221.547h28.335v28.335h-28.335z"/><path fill="#21d8de" d="M301.221 221.547h28.338v28.335h-28.338z"/><path d="M335.211 221.547h28.335v28.335h-28.335zm-67.987 33.991h28.335v28.342h-28.335z" fill="#ff6d3b"/><path fill="#cccbca" d="M301.221 255.538h28.338v28.342h-28.338z"/><path fill="#ffd55c" d="M335.211 255.538h28.335v28.342h-28.335z"/><path fill="#ff6d3b" d="M233.241 303.831h28.335v28.342h-28.335z"/><path d="M267.224 303.831h28.335v28.342h-28.335zm-39.595-147.159h141.877v24.982H227.629z" fill="#cccbca"/><path d="M133.404 381.869v32.685h245.195v-32.685H133.404zm12.252 21.3c-2.735 0-4.955-2.22-4.955-4.955s2.22-4.955 4.955-4.955 4.955 2.22 4.955 4.955-2.22 4.955-4.955 4.955z" fill="#f15424"/><path d="M365.205 381.886h2.283v6.071h-2.283zm-12.288 0h2.283v6.071h-2.283zm-12.255 0h2.283v6.071h-2.283zm-12.255 0h2.283v6.071h-2.283zm-12.255 0h2.283v6.071h-2.283zm-12.255 0h2.283v6.071h-2.283zm-12.255 0h2.283v6.071h-2.283zm-12.255 0h2.283v6.071h-2.283zm-12.255 0h2.283v6.071h-2.283zm-12.288 0h2.283v6.071h-2.283zm-12.255 0h2.283v6.071h-2.283zm-12.255 0h2.283v6.071h-2.283zm-12.255 0h2.283v6.071h-2.283zm-12.255 0h2.283v6.071h-2.283zm-12.255 0h2.283v6.071h-2.283zm-12.268 0h2.283v6.071h-2.283zm-12.275 0h2.283v6.071h-2.283zm-12.255 0h2.283v6.071h-2.283zm-12.258 0h2.283v6.071h-2.283z" fill="#fff"/></svg>