<svg xmlns="http://www.w3.org/2000/svg" viewBox="0 0 512 512"><circle cx="256" cy="256" r="256" fill="#ffd55c"/><path fill="#cccbca" d="M198.458 181.942h19.017v10.574h-19.017z"/><path d="M217.481 233.73v161.425c0 5.246-4.264 9.49-9.51 9.49-5.246 0-9.507-4.245-9.507-9.49V233.73h19.017z" fill="#ff6d3b"/><path d="M217.481 395.155V233.73h-9.51v170.915c5.246 0 9.51-4.244 9.51-9.49z" fill="#f15424"/><path d="M234.579 164.864l-26.607-57.456-26.601 57.456h-.007.02c9.418.007 17.051 7.627 17.081 17.045v.046h19.017v-.046c.026-9.421 7.657-17.038 17.071-17.045h.026z" fill="#fff"/><path fill="#131a26" d="M206.914 107.411h2.134v35.956h-2.134z"/><path d="M219.423 192.529a.875.875 0 0 1 .875.879v39.444a.905.905 0 0 1-.254.624.911.911 0 0 1-.621.251h-22.911a.917.917 0 0 1-.621-.251.909.909 0 0 1-.251-.624v-39.444c0-.225.083-.453.251-.621a.862.862 0 0 1 .621-.258h22.911z" fill="#3e4959"/><path fill="#131a26" d="M195.65 193.404h24.659v39.444H195.65z"/><path d="M218.839 193.404h.727v39.444h-.727zm-1.731 0h.73v39.444h-.73zm-1.738 0h.723v39.444h-.723zm-1.717 0h.727v39.444h-.727zm-1.718 0h.723v39.444h-.723zm-1.751 0h.727v39.444h-.727zm-1.717 0h.73v39.444h-.73zm-1.718 0h.723v39.444h-.723zm-1.751 0h.723v39.444h-.723zm-1.717 0h.73v39.444h-.73zm-1.718 0h.73v39.444h-.73zm-1.751 0h.73v39.444h-.73zm-1.704 0h.723v39.444h-.723zm-1.731 0h.723v39.444h-.723z" fill="#3e4959"/><path fill="#fff" d="M306.876 288.289l37.271-64.548 37.263 64.548z"/><path d="M381.77 115.884c-12.678-16.463-37.627-6.748-37.627 9.963 0-16.711-24.949-26.426-37.627-9.963-13.101 17.012-.188 46.82 37.627 63.941 37.816-17.121 50.725-46.93 37.627-63.941z" fill="#ff6d3b"/><path fill="#242d3c" d="M306.87 330.124h74.531v74.534H306.87z"/><path fill="#fff" d="M273.312 129.685l-11.132-22.277-11.135 22.277z"/><path fill="#242d3c" d="M251.045 129.685h22.267v248.403h-22.267z"/><path fill="#3e4959" d="M251.045 129.685h11.132v248.403h-11.132z"/><path fill="#131a26" d="M266.531 116.122l-4.351-8.714-4.376 8.714z"/><path fill="#fff" d="M251.045 378.087h22.267v7.865h-22.267z"/><path fill="#ff6d3b" d="M251.045 385.949h22.267v18.683h-22.267z"/><path fill="#fff" d="M125.265 107.355h39.629v297.29h-39.629z"/><path d="M125.265 120.845h7.36v2.768h-7.36zm0 14.852h7.36v2.768h-7.36zm0 14.877h7.36v2.768h-7.36zm.003 14.852h7.356v2.768h-7.356zm-.003 14.864h7.36v2.768h-7.36zm0 14.865h7.36v2.768h-7.36zm0 14.864h7.36v2.768h-7.36zm0 14.865h7.36v2.768h-7.36zm0 14.864h7.36v2.768h-7.36zm0 14.865h7.36v2.768h-7.36zm0 14.864h7.36v2.768h-7.36zm0 14.865h7.36v2.768h-7.36zm0 14.864h7.36v2.768h-7.36zm0 14.865h7.36v2.768h-7.36zm0 14.864h7.36v2.768h-7.36zm0 14.865h7.36v2.768h-7.36zm0 14.864h7.36v2.768h-7.36zm0 14.865h7.36v2.768h-7.36zm0 14.864h7.36v2.768h-7.36z" fill="#242d3c"/></svg>