<svg xmlns="http://www.w3.org/2000/svg" viewBox="0 0 512 512"><circle cx="256" cy="256" r="256" fill="#ffd55c"/><path fill="#e6e5e5" d="M300.019 411.278h-88.071l8.001-44.897h72.05z"/><path fill="#d9d8d7" d="M300.019 411.278l-8.02-44.897h-72.05l57.618 44.897z"/><path d="M323.6 417.865H188.366v-2.458c0-1.057.4-2.111 1.212-2.923a4.107 4.107 0 0 1 2.917-1.206h126.966c1.064 0 2.121.4 2.927 1.206a4.133 4.133 0 0 1 1.212 2.923v2.458zm90.955-80.516v21.322c0 4.245-3.485 7.71-7.733 7.71H105.158c-4.222 0-7.713-3.465-7.713-7.71v-21.322h317.11z" fill="#fff"/><path d="M414.555 337.349V134.891c0-4.231-3.482-7.723-7.736-7.723h-301.67c-4.225 0-7.697 3.492-7.697 7.723v202.458h317.103z" fill="#242d3c"/><path fill="#fff" d="M113.466 143.195h285.035v178.136H113.466z"/><path fill="#f2f2f2" d="M120.35 150.066h219.4v164.362h-219.4z"/><path d="M120.35 150.066h271.261v11.479H120.35zm0 20.268h28.137v144.103H120.35z" fill="#d9d8d7"/><path fill="#fff" d="M124.941 174.922h18.954v78.419h-18.954z"/><path fill="#242d3c" d="M120.35 161.554h28.137v8.78H120.35z"/><path fill="#cccbca" d="M171.801 161.554h167.943v8.78H171.801z"/><path fill="#d9d8d7" d="M339.737 170.334h51.877v61.922h-51.877z"/><path fill="#fff" d="M344.328 174.922h42.694v32.137h-42.694z"/><path fill="#d9d8d7" d="M339.737 241.04h51.877v73.398h-51.877z"/><path fill="#fff" d="M344.328 245.628h42.694v52.845h-42.694z"/><path d="M339.737 161.554h51.877v8.78h-51.877zm0 70.696h51.877v8.78h-51.877z" fill="#242d3c"/><path d="M348.292 249.592h34.803v2.768h-34.803zm0 6.012h34.803v2.768h-34.803zm0-76.734h34.803v2.775h-34.803zm0 6.021h34.803v2.775h-34.803zm0 6.026h34.803v2.775h-34.803z" fill="#d9d8d7"/><path fill="#cccbca" d="M329.034 170.334h10.709v144.103h-10.709z"/><path fill="#fff" d="M155.384 177.218h166.78v130.335h-166.78z"/><path fill="#ff6d3b" d="M301.551 286.951h13.018v13.018h-13.018z"/><path fill="#242d3c" d="M282.327 286.951h13.018v13.018h-13.018z"/><path fill="#21d8de" d="M263.069 286.951h13.015v13.018h-13.015z"/><path fill="#242d3c" d="M131.257 266.042h12.638v12.638h-12.638z"/><path fill="#ff6d3b" d="M124.941 259.733h12.632v12.632h-12.632z"/><path d="M130.302 180.29h8.228v8.225h-8.228zm0 13.586h8.228v8.225h-8.228zm0 13.59h8.228v8.225h-8.228z" fill="#d9d8d7"/><path fill="#ff6d3b" d="M179.051 266.947l30.446-52.733 30.453 52.733z"/><circle cx="272.087" cy="240.581" r="26.37" fill="#242d3c"/><path fill="#21d8de" d="M228.748 197.232h43.338v43.338h-43.338z"/><path d="M272.097 214.214c-14.561 0-26.37 11.806-26.37 26.366h26.37v-26.366z" fill="#fff"/></svg>